<?xml version="1.0" encoding="UTF-8"?>
<svg version="1.1" xmlns="http://www.w3.org/2000/svg" width="1080" height="1080">
<path d="M0 0 C3.42629463 0.40423394 6.8544265 0.78691658 10.28369141 1.16503906 C20.04333795 2.25983432 29.6614824 3.40975453 39.22900391 5.66503906 C42.82821158 6.4939475 46.43974694 7.1393561 50.07666016 7.78222656 C97.60179877 16.50731897 97.60179877 16.50731897 115.45166016 28.40722656 C116.40041016 28.71660156 117.34916016 29.02597656 118.32666016 29.34472656 C121.39249427 30.38711016 123.69839185 31.72840442 126.45166016 33.40722656 C128.13697878 34.12024598 129.82248009 34.8328509 131.51025391 35.54003906 C138.21239895 38.53375375 144.21225449 42.51360067 150.16259766 46.77832031 C151.99394458 48.08151428 153.87228609 49.3185715 155.76416016 50.53222656 C169.84664321 60.35721474 182.68140387 77.30240611 186.00427288 94.22086632 C186.4452897 97.36185519 186.58222074 100.33221002 186.59032536 103.50227165 C186.5957998 104.70902263 186.60127424 105.9157736 186.60691458 107.15909278 C186.60838174 109.13477011 186.60838174 109.13477011 186.60987854 111.15036011 C186.61444705 112.57034638 186.61944749 113.99033131 186.62484211 115.41031468 C186.63839975 119.30749548 186.64583469 123.20466758 186.65226877 127.10186577 C186.66028315 131.30630893 186.67397735 135.51073403 186.6869812 139.71516418 C186.70872922 146.99803984 186.72687983 154.28091734 186.74258614 161.56380844 C186.76530001 172.09364261 186.79344074 182.62345677 186.82290541 193.15327395 C186.87056271 210.23726495 186.91383194 227.32126412 186.9543457 244.40527344 C186.9937101 261.00065752 187.0351386 277.59603433 187.0793457 294.19140625 C187.08206998 295.21436939 187.08479425 296.23733253 187.08760107 297.29129456 C187.10128071 302.42320728 187.11500095 307.5551199 187.12874138 312.68703246 C187.2426769 355.26041533 187.34949273 397.83381393 187.45166016 440.40722656 C188.20366699 439.9929541 188.95567383 439.57868164 189.73046875 439.15185547 C190.71869629 438.60964355 191.70692383 438.06743164 192.72509766 437.50878906 C194.19342041 436.70175537 194.19342041 436.70175537 195.69140625 435.87841797 C198.8746056 434.18180031 202.11186284 432.76788473 205.45166016 431.40722656 C206.9121312 430.76624205 208.37032588 430.12005515 209.82666016 429.46972656 C210.59236328 429.13070313 211.35806641 428.79167969 212.14697266 428.44238281 C213.62760262 427.7773541 215.10224559 427.09873864 216.56884766 426.40332031 C244.87254677 413.18455974 276.86766328 410.96708279 307.59423828 411.37011719 C309.31680881 411.39248823 311.03949678 411.40871727 312.76220703 411.41308594 C322.86955009 411.46126202 332.44890115 413.21473691 342.32666016 415.21972656 C343.5515918 415.46803223 344.77652344 415.71633789 346.03857422 415.97216797 C352.60523545 417.37420994 358.84929331 419.08158397 365.11474609 421.50390625 C367.33317338 422.3614262 369.56195244 423.11985579 371.82666016 423.84472656 C382.62076143 427.43635813 392.54998053 431.79898969 402.45166016 437.40722656 C403.63207869 438.05670302 404.81307892 438.70512326 405.99462891 439.35253906 C413.55159887 443.53233372 420.55407949 448.20339753 427.45166016 453.40722656 C428.82367432 454.36982975 430.19825085 455.32880349 431.57666016 456.28222656 C434.45166016 458.40722656 434.45166016 458.40722656 435.45166016 460.40722656 C436.31791016 460.80941406 436.31791016 460.80941406 437.20166016 461.21972656 C440.18717433 462.7954146 442.09624223 464.99572726 444.45166016 467.40722656 C445.40041016 468.17035156 446.34916016 468.93347656 447.32666016 469.71972656 C451.17034407 472.86366289 454.26147564 476.62067872 457.45166016 480.40722656 C458.53384078 481.67904164 459.61710392 482.94993672 460.70166016 484.21972656 C461.16056641 484.76242187 461.61947266 485.30511719 462.09228516 485.86425781 C463.42691144 487.41647745 463.42691144 487.41647745 464.87451172 488.80493164 C467.46803996 491.4398118 469.67323619 494.37527184 471.95166016 497.28222656 C472.43763672 497.89453125 472.92361328 498.50683594 473.42431641 499.13769531 C476.02621405 502.44855689 478.34948947 505.74921204 480.45166016 509.40722656 C481.02142578 510.28636719 481.59119141 511.16550781 482.17822266 512.07128906 C488.18363905 521.43776154 492.87756449 531.27770916 497.45166016 541.40722656 C497.92474609 542.43332031 498.39783203 543.45941406 498.88525391 544.51660156 C500.17831638 547.45036953 501.33617129 550.40101914 502.45166016 553.40722656 C502.71688477 554.12023926 502.98210938 554.83325195 503.25537109 555.56787109 C522.18326797 607.55100816 519.62455284 668.18710897 496.45166016 718.40722656 C492.56252534 726.67572327 488.1477004 734.57291245 483.45166016 742.40722656 C483.00306641 743.17679688 482.55447266 743.94636719 482.09228516 744.73925781 C479.80548751 748.45802637 477.35433708 752.05502323 474.88916016 755.65722656 C474.39480469 756.38941406 473.90044922 757.12160156 473.39111328 757.87597656 C472.91480469 758.57207031 472.43849609 759.26816406 471.94775391 759.98535156 C471.51648193 760.61860352 471.08520996 761.25185547 470.64086914 761.90429688 C469.45166016 763.40722656 469.45166016 763.40722656 467.45166016 764.40722656 C467.18353516 764.98472656 466.91541016 765.56222656 466.63916016 766.15722656 C465.06347212 769.14274074 462.86315946 771.05180864 460.45166016 773.40722656 C459.68853516 774.35597656 458.92541016 775.30472656 458.13916016 776.28222656 C454.4554008 780.7858822 449.89962446 784.36088141 445.45166016 788.07910156 C444.83291016 788.59988281 444.21416016 789.12066406 443.57666016 789.65722656 C443.02236328 790.11613281 442.46806641 790.57503906 441.89697266 791.04785156 C440.19736172 792.54378055 440.19736172 792.54378055 438.45166016 795.40722656 C437.46166016 795.73722656 436.47166016 796.06722656 435.45166016 796.40722656 C434.3229117 797.57017952 433.19466676 798.73362505 432.06884766 799.89941406 C428.54664618 803.18339901 424.4458588 805.73908048 420.45166016 808.40722656 C419.39591797 809.12265625 418.34017578 809.83808594 417.25244141 810.57519531 C405.3255048 818.53568394 392.55135315 824.62467957 379.45166016 830.40722656 C378.33791016 830.92285156 377.22416016 831.43847656 376.07666016 831.96972656 C347.21608294 843.41443822 317.14239818 845.886417 286.45166016 845.40722656 C285.7059375 845.39997559 284.96021484 845.39272461 284.19189453 845.38525391 C265.19070672 845.12060091 246.23640729 840.92830051 228.45166016 834.40722656 C226.70566804 833.89340603 224.95591219 833.39209747 223.20166016 832.90722656 C217.69023768 831.27187006 212.61797796 828.90894918 207.45166016 826.40722656 C206.8611084 826.1275 206.27055664 825.84777344 205.66210938 825.55957031 C195.11135832 820.55371975 185.22721398 814.78715005 175.45166016 808.40722656 C173.98792969 807.47136719 173.98792969 807.47136719 172.49462891 806.51660156 C168.62776197 803.8361033 165.01942558 800.89685691 161.38916016 797.90722656 C160.00255163 796.77167529 158.6158354 795.63625552 157.22900391 794.50097656 C156.57786621 793.96537109 155.92672852 793.42976562 155.25585938 792.87792969 C153.73476611 791.63800197 152.19130569 790.42558748 150.64306641 789.21972656 C148.08050682 787.10024769 146.14444917 784.77321283 144.07666016 782.18847656 C142.43868678 780.28745629 142.43868678 780.28745629 140.10400391 778.61035156 C136.8900633 775.94074552 134.5352225 772.96786455 132.01416016 769.65722656 C131.53551514 769.03686523 131.05687012 768.41650391 130.5637207 767.77734375 C129.61801248 766.54931782 128.67496975 765.31923365 127.73486328 764.08691406 C126.63355165 762.64531892 125.52032375 761.21284094 124.40478516 759.78222656 C120.45166016 754.66198847 120.45166016 754.66198847 120.45166016 752.40722656 C119.79166016 752.40722656 119.13166016 752.40722656 118.45166016 752.40722656 C113.08416877 744.97911205 108.98602222 736.72036052 104.98291016 728.50488281 C103.79330946 726.09836915 102.56531726 723.77864597 101.20166016 721.46972656 C99.33901241 718.21009301 97.88458334 714.86804195 96.45166016 711.40722656 C96.18756348 710.77099365 95.9234668 710.13476074 95.65136719 709.47924805 C83.37970545 679.3233898 81.0362025 649.50931985 81.45166016 617.40722656 C80.39700562 617.67224976 80.39700562 617.67224976 79.32104492 617.94262695 C76.0320105 618.76723506 72.74202019 619.58792374 69.45166016 620.40722656 C68.34032715 620.68421387 67.22899414 620.96120117 66.08398438 621.24658203 C49.21369387 625.41413915 32.49106185 628.80181189 15.23974609 631.04150391 C12.92324913 631.34536664 10.61342364 631.67286755 8.30322266 632.02050781 C4.35997736 632.58077368 0.4149024 633.02202665 -3.54833984 633.40722656 C-4.43360352 633.49746094 -5.31886719 633.58769531 -6.23095703 633.68066406 C-54.2585221 638.31284368 -105.24642492 637.64723732 -152.82226562 629.8359375 C-156.22441606 629.30090471 -159.62568684 628.912953 -163.04833984 628.53222656 C-187.23404383 625.38362685 -211.48258814 618.61239075 -234.34619141 610.21533203 C-236.27142978 609.50884212 -238.20240757 608.8180325 -240.13427734 608.12988281 C-257.02038849 601.93830873 -274.85443653 593.13330519 -288.54833984 581.40722656 C-288.54833984 580.74722656 -288.54833984 580.08722656 -288.54833984 579.40722656 C-289.35271484 579.13910156 -290.15708984 578.87097656 -290.98583984 578.59472656 C-291.83146484 578.20285156 -292.67708984 577.81097656 -293.54833984 577.40722656 C-293.87833984 576.41722656 -294.20833984 575.42722656 -294.54833984 574.40722656 C-295.87202253 573.72159811 -297.20683139 573.05728601 -298.54833984 572.40722656 C-305.06869844 566.06191115 -310.2268035 558.86204634 -313.54833984 550.40722656 C-314.06396484 549.37597656 -314.57958984 548.34472656 -315.11083984 547.28222656 C-319.61921661 536.56877739 -318.83885285 524.08905656 -318.81576538 512.67854309 C-318.81950837 510.91061052 -318.82411246 509.1426796 -318.82949603 507.37475127 C-318.8416611 502.54757948 -318.84147327 497.72047733 -318.83910728 492.89329374 C-318.83869746 487.67498622 -318.84975386 482.45670054 -318.85922241 477.23840332 C-318.87579739 467.02655194 -318.88133036 456.81472366 -318.88244717 446.60285995 C-318.88339924 438.29811493 -318.8875175 429.99337749 -318.89384842 421.68863487 C-318.91145078 398.1168192 -318.92068879 374.5450217 -318.91918747 350.9731994 C-318.91910756 349.70385757 -318.91902765 348.43451573 -318.91894531 347.12670898 C-318.91886355 345.85580835 -318.91878179 344.58490773 -318.91869755 343.27549496 C-318.9178848 322.68286361 -318.9370225 302.09030543 -318.96522205 281.49769524 C-318.99398259 260.32753925 -319.00776061 239.1574189 -319.00603449 217.98724288 C-319.00537172 206.11215382 -319.0108147 194.23714149 -319.03239059 182.36207008 C-319.05064406 172.25125913 -319.0549155 162.14055969 -319.04137175 152.02973936 C-319.03486332 146.87708799 -319.0346478 141.72465032 -319.05207825 136.57201958 C-319.06790823 131.84363577 -319.06484505 127.11563332 -319.04750998 122.38725825 C-319.04446181 120.68814361 -319.04798883 118.98899978 -319.05923013 117.28991959 C-319.15720928 101.41338108 -317.48583777 85.93264009 -308.54833984 72.40722656 C-307.88833984 72.40722656 -307.22833984 72.40722656 -306.54833984 72.40722656 C-306.32146484 71.70597656 -306.09458984 71.00472656 -305.86083984 70.28222656 C-301.99529415 61.81484077 -293.71426415 56.0001431 -286.54833984 50.40722656 C-285.68595703 49.67439453 -285.68595703 49.67439453 -284.80615234 48.92675781 C-273.15482012 39.31990464 -258.58079499 31.98020304 -244.53662109 26.56347656 C-242.23004305 25.67099669 -239.94141631 24.75243231 -237.65380859 23.81347656 C-226.16290074 19.14846441 -214.52732541 15.58970332 -202.54833984 12.40722656 C-201.30697266 12.07078125 -201.30697266 12.07078125 -200.04052734 11.72753906 C-179.9026452 6.29350737 -159.52738733 3.30926534 -138.86083984 0.71972656 C-137.99430786 0.61104248 -137.12777588 0.5023584 -136.23498535 0.39038086 C-91.11441019 -5.23232052 -45.14791676 -5.36825546 0 0 Z M-112.54833984 42.40722656 C-113.23573242 42.4605011 -113.923125 42.51377563 -114.63134766 42.56866455 C-130.48935891 43.81514375 -146.07475329 45.49328105 -161.60888672 48.99023438 C-164.21957345 49.55154517 -166.84483929 49.95374045 -169.48583984 50.34472656 C-181.55377861 52.28728651 -193.84914905 55.02761611 -205.23193359 59.51660156 C-207.56449486 60.41343794 -209.89246439 61.10936383 -212.29833984 61.78222656 C-226.39692254 65.92228656 -240.38728938 72.15343376 -252.54833984 80.40722656 C-253.84384766 81.26767578 -253.84384766 81.26767578 -255.16552734 82.14550781 C-262.76519838 87.39791203 -271.62544758 93.67130135 -274.29833984 102.96972656 C-275.093465 108.99147444 -273.37036464 113.88829827 -269.85302734 118.75097656 C-268.16003453 120.76273371 -266.51826308 122.66514987 -264.54833984 124.40722656 C-263.88833984 124.40722656 -263.22833984 124.40722656 -262.54833984 124.40722656 C-262.54833984 125.06722656 -262.54833984 125.72722656 -262.54833984 126.40722656 C-260.89301362 127.42588885 -259.22573846 128.42533469 -257.54833984 129.40722656 C-257.05333984 130.39722656 -257.05333984 130.39722656 -256.54833984 131.40722656 C-254.56756031 132.44477774 -252.56304083 133.43718535 -250.54833984 134.40722656 C-248.84329001 135.38241694 -247.13843073 136.35794635 -245.43554688 137.33691406 C-226.48301367 148.08567287 -206.11017388 154.94022165 -184.88818359 159.63378906 C-182.68163429 160.14477943 -180.48512368 160.70149818 -178.30224609 161.30566406 C-115.91288645 178.38927842 -39.68862007 178.89578994 23.32568359 165.82861328 C26.33072506 165.23298839 29.35435486 164.82039885 32.38916016 164.40722656 C38.57410946 163.48519586 44.56745748 161.98284617 50.61181641 160.40722656 C53.88417371 159.5550155 57.16289968 158.7551022 60.45166016 157.96972656 C70.62025405 155.42757809 80.70854499 152.27087568 90.45166016 148.40722656 C91.61181641 147.96443359 91.61181641 147.96443359 92.79541016 147.51269531 C106.38634883 142.24830395 118.73309295 135.04819026 130.45166016 126.40722656 C131.11423828 125.92511719 131.77681641 125.44300781 132.45947266 124.94628906 C137.71931224 120.8249429 141.52275535 115.77987601 142.93212891 109.14550781 C143.33101921 102.96809845 141.14544261 98.26419532 137.45166016 93.40722656 C134.94492799 90.84490154 132.27756156 88.60693391 129.45166016 86.40722656 C128.70916016 85.78203125 127.96666016 85.15683594 127.20166016 84.51269531 C123.77229515 81.88708773 120.17388625 79.71422117 116.45166016 77.53222656 C115.43265625 76.91927734 115.43265625 76.91927734 114.39306641 76.29394531 C103.53781023 69.90029901 92.08444192 65.32653943 80.13916016 61.40722656 C79.17394943 61.08806274 79.17394943 61.08806274 78.1892395 60.76245117 C62.7146583 55.6595751 46.89903346 50.91521324 30.69042969 48.87158203 C27.23771618 48.37655255 23.85676384 47.68979113 20.43994141 46.98925781 C11.18526636 45.18883913 1.87523758 44.33123195 -7.51049805 43.52685547 C-10.34751557 43.28337011 -13.18325924 43.02792745 -16.01904297 42.77050781 C-48.30564086 39.88593721 -80.23910991 39.90318551 -112.54833984 42.40722656 Z M-274.54833984 171.40722656 C-274.59477729 181.4389779 -274.63026691 191.47070346 -274.65196419 201.50254059 C-274.66238027 206.16123769 -274.6764996 210.81986099 -274.69921875 215.47851562 C-274.72102489 219.97835511 -274.73292482 224.47812382 -274.73809433 228.97801208 C-274.74177617 230.69072076 -274.74896576 232.40342576 -274.75979996 234.11610413 C-274.77441833 236.52377553 -274.7763135 238.93115821 -274.77539062 241.33886719 C-274.78617645 242.38976028 -274.78617645 242.38976028 -274.79718018 243.46188354 C-274.75785219 253.00734676 -272.08203361 259.51535299 -265.54833984 266.40722656 C-261.18312441 270.3321895 -257.09359966 273.39342168 -251.54833984 275.40722656 C-251.54833984 276.06722656 -251.54833984 276.72722656 -251.54833984 277.40722656 C-234.10039749 286.45609046 -216.45215542 293.96563666 -197.54833984 299.40722656 C-196.80181152 299.62475586 -196.0552832 299.84228516 -195.28613281 300.06640625 C-166.90005833 308.24030964 -137.84579558 311.45412207 -108.54833984 314.40722656 C-107.69337921 314.49819611 -106.83841858 314.58916565 -105.95755005 314.68289185 C-98.74983404 315.40677244 -91.58649468 315.61431249 -84.34521484 315.68066406 C-83.08889755 315.69305618 -81.83258026 315.7054483 -80.53819275 315.71821594 C-76.45820992 315.7505852 -72.37842158 315.77016421 -68.29833984 315.78222656 C-67.60294224 315.78467503 -66.90754463 315.78712349 -66.19107437 315.78964615 C-46.76792886 315.8483775 -27.55809095 315.29705715 -8.23583984 313.09472656 C-7.29921509 312.9880365 -6.36259033 312.88134644 -5.39758301 312.77142334 C10.92124246 310.86274431 27.12626483 308.24199344 43.20166016 304.84472656 C44.21486328 304.63654297 45.22806641 304.42835938 46.27197266 304.21386719 C51.12872018 303.19726452 55.75082823 302.00628005 60.45166016 300.40722656 C61.86825 300.090308 63.28788328 299.78684385 64.70947266 299.49316406 C69.73851574 298.41325653 74.49439107 296.77717379 79.32666016 295.03222656 C80.20797607 294.71697021 81.08929199 294.40171387 81.99731445 294.0769043 C83.72507835 293.45846781 85.45223936 292.8383437 87.17871094 292.21630859 C88.99991197 291.56803145 90.83167493 290.94945738 92.66650391 290.34082031 C102.93120417 286.89867271 112.54594282 281.52088116 121.45166016 275.40722656 C122.35787109 274.79363281 123.26408203 274.18003906 124.19775391 273.54785156 C130.08455804 269.4125639 135.17529403 265.22912718 139.45166016 259.40722656 C139.96928421 258.70882156 140.48690826 258.01041656 141.0202179 257.29084778 C142.85592828 253.59283385 142.85033618 250.34571987 142.79223633 246.31225586 C142.79289345 245.11147148 142.79289345 245.11147148 142.79356384 243.88642883 C142.79148062 241.2511827 142.76817194 238.61657974 142.74462891 235.98144531 C142.73903129 234.15013476 142.73476197 232.31881971 142.73176575 230.48750305 C142.72033005 225.6754814 142.69087382 220.86373285 142.65765381 216.05181885 C142.62692545 211.13842462 142.6132545 206.22498612 142.59814453 201.31152344 C142.56600292 191.67663804 142.51482196 182.04195504 142.45166016 172.40722656 C138.87066999 173.57541601 135.56241741 174.74067656 132.27197266 176.57910156 C131.5161792 176.99329346 130.76038574 177.40748535 129.98168945 177.83422852 C129.18802979 178.27081787 128.39437012 178.70740723 127.57666016 179.15722656 C119.0754587 183.73088115 110.56011698 187.26049642 101.45166016 190.40722656 C100.30568359 190.83519531 99.15970703 191.26316406 97.97900391 191.70410156 C86.33176834 196.03671273 74.29952273 199.67689715 62.05712891 201.89160156 C59.4240006 202.41270042 56.8345263 203.05668986 54.23266602 203.71411133 C34.9508521 208.51428402 15.14962852 211.56208872 -4.66210938 212.96777344 C-8.39629378 213.2365474 -12.12162313 213.54648229 -15.84765625 213.91088867 C-31.92294646 215.45472342 -47.90539533 215.80701544 -64.04833984 215.78222656 C-64.71544102 215.78198738 -65.38254219 215.7817482 -66.06985855 215.78150177 C-114.21134213 215.75978047 -161.04488509 211.07562694 -207.54833984 198.40722656 C-209.07951776 198.00590977 -210.61075951 197.60483639 -212.14208984 197.20410156 C-229.80785337 192.43512068 -247.23820241 185.60881236 -263.37646484 177.00097656 C-266.39027924 175.48664618 -269.32512007 174.38395983 -272.54833984 173.40722656 C-272.54833984 172.74722656 -272.54833984 172.08722656 -272.54833984 171.40722656 C-273.20833984 171.40722656 -273.86833984 171.40722656 -274.54833984 171.40722656 Z M-274.54833984 314.40722656 C-274.61808607 323.24823288 -274.67127542 332.08914337 -274.70377636 340.93036556 C-274.71938123 345.03644012 -274.74052383 349.14232537 -274.7746582 353.24829102 C-274.80743779 357.21647037 -274.82523174 361.18446852 -274.83297157 365.1527729 C-274.83848191 366.66092338 -274.84924169 368.1690648 -274.86553001 369.67713737 C-274.97587397 380.32431409 -274.96806409 389.59114117 -267.23583984 397.65722656 C-266.03894531 398.90632813 -266.03894531 398.90632813 -264.81787109 400.18066406 C-260.68124447 404.23897245 -256.64409709 407.525745 -251.50927734 410.31738281 C-249.26431662 411.56508011 -247.103252 412.92419067 -244.92333984 414.28222656 C-235.67218567 419.84134197 -225.76788038 423.99676576 -215.54833984 427.40722656 C-214.79439941 427.66117188 -214.04045898 427.91511719 -213.26367188 428.17675781 C-141.41984653 452.22995522 -62.37410079 453.89200262 73.77197266 430.39941406 C76.20954088 429.49687423 78.63130919 428.76383832 81.12744141 428.04394531 C98.6787717 422.83754774 116.53667265 414.42471577 130.45166016 402.40722656 C131.09232422 401.91738281 131.73298828 401.42753906 132.39306641 400.92285156 C137.19628232 397.17287094 140.42401574 393.19921199 142.45166016 387.40722656 C143.12432353 381.78152566 143.03602367 376.216548 142.93994141 370.55957031 C142.93060066 368.93576655 142.92349052 367.31194858 142.91850281 365.68812561 C142.89953188 361.4414184 142.85051908 357.19558416 142.79498291 352.94921875 C142.74357455 348.60526331 142.72094299 344.261165 142.69580078 339.91699219 C142.64238852 331.41333909 142.55719887 322.91039182 142.45166016 314.40722656 C139.21597229 316.02451267 135.98065139 317.64225011 132.75244141 319.27441406 C111.62849806 329.92458866 111.62849806 329.92458866 100.45166016 333.40722656 C99.07560532 333.86238316 97.70063136 334.32081832 96.32666016 334.78222656 C95.58287109 335.0284375 94.83908203 335.27464844 94.07275391 335.52832031 C92.08169523 336.19596294 90.09555501 336.87829467 88.11181641 337.56738281 C79.00346842 340.69270263 69.85261317 343.3075312 60.45166016 345.40722656 C59.59975098 345.59784668 58.7478418 345.7884668 57.87011719 345.98486328 C12.91163123 355.86156377 -32.60318516 359.0701344 -78.54833984 358.40722656 C-79.72058105 358.3946582 -80.89282227 358.38208984 -82.10058594 358.36914062 C-141.63974679 357.61382182 -203.39890244 348.20906446 -257.61083984 322.78222656 C-258.40844727 322.41000977 -259.20605469 322.03779297 -260.02783203 321.65429688 C-263.50310915 319.99835161 -266.80700769 318.31829179 -269.98193359 316.13378906 C-272.30938851 314.2211624 -272.30938851 314.2211624 -274.54833984 314.40722656 Z M-274.54833984 447.40722656 C-274.61803251 457.55206644 -274.67124867 467.69684879 -274.70377636 477.84187984 C-274.7193927 482.55328298 -274.74055687 487.2645216 -274.7746582 491.97583008 C-274.80739603 496.52755398 -274.82522315 501.07912023 -274.83297157 505.63095284 C-274.83848929 507.36238649 -274.84926376 509.09381211 -274.86553001 510.82517815 C-275.12767027 527.10986367 -275.12767027 527.10986367 -267.09130859 540.84472656 C-266.32753906 541.61816406 -266.32753906 541.61816406 -265.54833984 542.40722656 C-264.70271484 543.31472656 -263.85708984 544.22222656 -262.98583984 545.15722656 C-260.60123165 547.35840335 -258.33731241 548.76977707 -255.54833984 550.40722656 C-253.83764014 551.50772341 -252.12940448 552.61205773 -250.42333984 553.71972656 C-240.81956344 559.81838136 -231.28261855 564.60856629 -220.54833984 568.40722656 C-219.41912109 568.80683594 -218.28990234 569.20644531 -217.12646484 569.61816406 C-192.71625304 577.98585675 -167.44769027 584.71030297 -141.71533203 587.16992188 C-139.25624295 587.43921374 -136.81586118 587.78782356 -134.36865234 588.14941406 C-133.44552246 588.28452393 -132.52239258 588.41963379 -131.57128906 588.55883789 C-129.82961873 588.81691424 -128.08887581 589.08141587 -126.34960938 589.35522461 C-107.93754212 592.03034588 -89.08991388 591.56770902 -70.5378418 591.53759766 C-66.62007776 591.5322392 -62.70242855 591.53757617 -58.78466797 591.54394531 C-37.60624027 591.5517935 -16.68426645 591.0512173 4.32666016 588.28222656 C5.14652405 588.17662415 5.96638794 588.07102173 6.81109619 587.96221924 C18.76340109 586.4071508 30.55868783 584.3884577 42.32666016 581.78222656 C42.98647888 581.63638123 43.64629761 581.49053589 44.32611084 581.340271 C50.85585207 579.87922983 57.27860935 578.29786259 63.58276367 576.04248047 C65.5416731 575.37663039 67.49969958 574.87574165 69.51416016 574.40722656 C72.87563208 573.60846096 76.00751965 572.5003557 79.20166016 571.18847656 C81.45166016 570.40722656 81.45166016 570.40722656 83.35986328 570.20654297 C85.676757 569.88842302 87.38030912 569.50708785 89.45166016 568.40722656 C91.32902949 565.411258 92.08153824 562.18655999 92.95166016 558.78222656 C93.51085353 556.86527302 94.08000763 554.95119923 94.65869141 553.04003906 C95.09109131 551.61159668 95.09109131 551.61159668 95.53222656 550.15429688 C96.87985015 546.12788672 98.67132898 542.41216973 100.63916016 538.65722656 C100.97753906 538.00979492 101.31591797 537.36236328 101.66455078 536.6953125 C102.59256776 534.93208024 103.52206449 533.16962703 104.45166016 531.40722656 C107.27887675 526.11978477 107.27887675 526.11978477 108.45166016 520.40722656 C109.11166016 520.40722656 109.77166016 520.40722656 110.45166016 520.40722656 C110.85578125 519.32828125 110.85578125 519.32828125 111.26806641 518.22753906 C112.44983067 515.41158593 113.81722371 512.89812081 115.38916016 510.28222656 C116.14519531 509.00992188 116.14519531 509.00992188 116.91650391 507.71191406 C118.30493331 505.6275035 119.67829704 504.14955582 121.45166016 502.40722656 C122.82664449 500.6104679 124.17809051 498.79560759 125.51416016 496.96972656 C128.86879749 492.46021409 132.30224523 488.04676723 135.88916016 483.71972656 C136.71287109 482.72585938 137.53658203 481.73199219 138.38525391 480.70800781 C140.45166016 478.40722656 140.45166016 478.40722656 142.45166016 477.40722656 C142.45166016 467.83722656 142.45166016 458.26722656 142.45166016 448.40722656 C138.49166016 450.38722656 134.53166016 452.36722656 130.45166016 454.40722656 C128.12863057 455.43093452 125.79628167 456.43398744 123.45166016 457.40722656 C119.05183838 459.31006919 114.70399356 461.25479346 110.45166016 463.46972656 C107.79776549 464.81281174 105.18673597 465.89680042 102.35791016 466.81347656 C101.56900391 467.0707251 100.78009766 467.32797363 99.96728516 467.59301758 C99.13712891 467.86170654 98.30697266 468.13039551 97.45166016 468.40722656 C96.62150391 468.68171631 95.79134766 468.95620605 94.93603516 469.23901367 C82.87545955 473.22380044 70.87432776 476.76535975 58.45166016 479.40722656 C57.54158203 479.60558105 56.63150391 479.80393555 55.69384766 480.00830078 C52.65642306 480.66998249 49.61701309 481.32163989 46.57666016 481.96972656 C45.6570752 482.16775879 44.73749023 482.36579102 43.79003906 482.56982422 C28.40090171 485.7846328 12.91507743 487.83314734 -2.72973633 489.28759766 C-5.37755195 489.53378038 -8.02448424 489.7881471 -10.67138672 490.04394531 C-14.89538642 490.44924929 -19.12067744 490.8368872 -23.34753418 491.21118164 C-25.25190309 491.38082036 -27.15556715 491.55833722 -29.05908203 491.73730469 C-40.73830342 492.7244812 -52.46078796 492.64913532 -64.17333984 492.65722656 C-65.3201825 492.65856598 -66.46702515 492.6599054 -67.64862061 492.6612854 C-86.45650873 492.65654394 -105.0196984 491.86872914 -123.71386719 489.82617188 C-127.4029363 489.42311301 -131.09400428 489.04957005 -134.78662109 488.68066406 C-147.40659848 487.37119702 -159.793706 485.43033213 -172.21875 482.87597656 C-175.09760191 482.29670642 -177.98526577 481.77839019 -180.8762207 481.26367188 C-201.46882989 477.56515922 -222.45187424 472.02525903 -241.54833984 463.40722656 C-242.61310547 462.97023438 -243.67787109 462.53324219 -244.77490234 462.08300781 C-254.3766435 458.12743724 -263.42762497 453.35281967 -272.54833984 448.40722656 C-273.20833984 448.07722656 -273.86833984 447.74722656 -274.54833984 447.40722656 Z M248.45166016 492.40722656 C248.45166016 521.11722656 248.45166016 549.82722656 248.45166016 579.40722656 C219.41166016 579.40722656 190.37166016 579.40722656 160.45166016 579.40722656 C160.4225974 596.80077962 160.4225974 596.80077962 160.40283203 614.19433594 C160.39684308 621.28345483 160.3897414 628.37256087 160.3762207 635.46166992 C160.36539354 641.17395227 160.35938369 646.88622084 160.35678291 652.59851265 C160.35492835 654.78310933 160.35130716 656.96770522 160.3459301 659.15229607 C160.33872194 662.20075005 160.33766912 665.24914635 160.33813477 668.29760742 C160.33453949 669.21038452 160.33094421 670.12316162 160.32723999 671.06359863 C159.93084357 675.05290112 159.93084357 675.05290112 161.45166016 678.40722656 C164.12957739 678.50235733 166.7815138 678.53276628 169.4597168 678.52075195 C170.3122853 678.52087249 171.1648538 678.52099302 172.04325771 678.52111721 C174.81613671 678.52036797 177.58894935 678.51273925 180.36181641 678.50488281 C182.06848112 678.50341343 183.77514627 678.5023927 185.48181152 678.50183105 C191.82593459 678.49657777 198.17004801 678.48261669 204.51416016 678.46972656 C225.76822266 678.43878906 225.76822266 678.43878906 247.45166016 678.40722656 C247.78166016 706.78722656 248.11166016 735.16722656 248.45166016 764.40722656 C281.12166016 764.40722656 313.79166016 764.40722656 347.45166016 764.40722656 C347.45166016 735.69722656 347.45166016 706.98722656 347.45166016 677.40722656 C376.16166016 677.40722656 404.87166016 677.40722656 434.45166016 677.40722656 C434.45166016 645.06722656 434.45166016 612.72722656 434.45166016 579.40722656 C405.74166016 579.40722656 377.03166016 579.40722656 347.45166016 579.40722656 C347.45166016 550.69722656 347.45166016 521.98722656 347.45166016 492.40722656 C314.78166016 492.40722656 282.11166016 492.40722656 248.45166016 492.40722656 Z " fill="#6B8DBE" transform="translate(483.54833984375,127.5927734375)"/>
<path d="M0 0 C11.3261163 -0.02312255 22.65222703 -0.04091464 33.97836208 -0.05181217 C39.23696664 -0.05704119 44.4955551 -0.06413918 49.75415039 -0.07543945 C54.82453127 -0.08626766 59.89489662 -0.09227669 64.96528816 -0.09487724 C66.90426948 -0.09673161 68.84324991 -0.10035245 70.78222466 -0.10573006 C73.4882176 -0.1129396 76.19414556 -0.11399098 78.90014648 -0.11352539 C80.11502495 -0.1189183 80.11502495 -0.1189183 81.35444641 -0.12442017 C86.88594784 -0.11405216 86.88594784 -0.11405216 88 1 C88.10067034 4.09970764 88.136143 7.17717671 88.12939453 10.27734375 C88.13202301 11.73818893 88.13202301 11.73818893 88.13470459 13.22854614 C88.13912499 16.46488194 88.13618445 19.7011636 88.1328125 22.9375 C88.13348549 25.17569998 88.13445546 27.41389988 88.13571167 29.65209961 C88.1371889 34.34977919 88.13503329 39.0474398 88.13037109 43.74511719 C88.1246738 49.78160614 88.12795267 55.81805064 88.13394356 61.85453796 C88.1375485 66.47831561 88.13641089 71.10208264 88.13381577 75.7258606 C88.13314631 77.95232142 88.13397556 80.1787832 88.13629532 82.40524292 C88.13882074 85.51107355 88.1349828 88.6168311 88.12939453 91.72265625 C88.13141876 92.65256378 88.13344299 93.58247131 88.13552856 94.54055786 C88.11426227 100.88573773 88.11426227 100.88573773 87 102 C84.29161914 102.09514592 81.60881487 102.12554932 78.90014648 102.11352539 C78.05143982 102.11367142 77.20273315 102.11381744 76.32830811 102.1139679 C73.50921109 102.11326848 70.69017929 102.10547478 67.87109375 102.09765625 C65.92196183 102.09579217 63.97282945 102.09436822 62.0236969 102.09336853 C56.88293168 102.08954255 51.74219453 102.07971159 46.60144043 102.06866455 C41.35994852 102.05845215 36.1184521 102.05387128 30.87695312 102.04882812 C20.58462306 102.03808939 10.29231386 102.02101201 0 102 C3.78974116 99.5112826 7.61343253 99.73125034 11.98144531 99.77294922 C12.79472668 99.77270815 13.60800804 99.77246708 14.4459343 99.7722187 C17.07344323 99.77370918 19.70066695 99.78892967 22.328125 99.8046875 C23.95230981 99.80762876 25.57649651 99.80966869 27.20068359 99.81079102 C33.21715134 99.82126872 39.23357848 99.84919119 45.25 99.875 C58.6975 99.91625 72.145 99.9575 86 100 C86 67.66 86 35.32 86 2 C57.29 2 28.58 2 -1 2 C-0.67 1.34 -0.34 0.68 0 0 Z " fill="#5B80B6" transform="translate(832,705)"/>
<path d="M0 0 C0.80991898 0.00359528 1.61983795 0.00719055 2.45429993 0.01089478 C3.30300659 0.01074875 4.15171326 0.01060272 5.02613831 0.01045227 C7.84523532 0.01115168 10.66426712 0.01894539 13.48335266 0.02676392 C15.43248458 0.028628 17.38161696 0.03005195 19.33074951 0.03105164 C24.47151473 0.03487761 29.61225188 0.04470858 34.75300598 0.05575562 C39.99449789 0.06596802 45.23599431 0.07054889 50.47749329 0.07559204 C60.76982335 0.08633078 71.06213255 0.10340815 81.35444641 0.12442017 C81.35444641 0.45442017 81.35444641 0.78442017 81.35444641 1.12442017 C77.01310547 2.19445989 72.79399796 2.25954699 68.35127258 2.23794556 C67.56050323 2.23809158 66.76973389 2.23823761 65.95500183 2.23838806 C63.35244462 2.23769379 60.7499598 2.22992417 58.14741516 2.22207642 C56.33852172 2.22021051 54.52962777 2.21878742 52.72073364 2.2177887 C47.96800838 2.2139771 43.21531386 2.20415842 38.46260071 2.19308472 C33.60949621 2.18284139 28.75638673 2.17828482 23.90327454 2.17324829 C14.38698502 2.16253492 4.87071827 2.14547482 -4.64555359 2.12442017 C-5.30555359 3.44442017 -5.96555359 4.76442017 -6.64555359 6.12442017 C-6.68827459 4.45830111 -6.68619191 2.79059132 -6.64555359 1.12442017 C-4.8456696 -0.67546382 -2.39555483 0.00449012 0 0 Z " fill="#577FB5" transform="translate(648.6455535888672,704.8755798339844)"/>
<path d="M0 0 C2.88168344 2.88168344 2.30772783 5.80075342 2.31884766 9.66259766 C2.32889328 10.45292892 2.3389389 11.24326019 2.34928894 12.05754089 C2.38024134 14.67637385 2.39718933 17.29510405 2.4140625 19.9140625 C2.43276447 21.72725313 2.45233715 23.54043498 2.4727478 25.35360718 C2.52417765 30.13096953 2.56374513 34.90836013 2.60089111 39.68585205 C2.64086291 44.55886892 2.69198629 49.43176717 2.7421875 54.3046875 C2.83907519 63.86970847 2.92343871 73.43479625 3 83 C1.515 83.495 1.515 83.495 0 84 C0 56.28 0 28.56 0 0 Z " fill="#567CB5" transform="translate(207,573)"/>
<path d="M0 0 C0.66 0 1.32 0 2 0 C2.309375 1.7325 2.309375 1.7325 2.625 3.5 C4.80417361 12.08049607 11.35586329 17.60374683 18 23 C17.67 23.66 17.34 24.32 17 25 C9.64768668 20.1897099 2.12996567 13.65564466 -0.5625 5 C-1 2 -1 2 0 0 Z " fill="#6289B9" transform="translate(208,377)"/>
<path d="M0 0 C0 4.05532388 -1.27208678 5.02448956 -4 8 C-6.34041721 10.04055995 -8.77985651 11.93227899 -11.25 13.8125 C-11.8996875 14.31458984 -12.549375 14.81667969 -13.21875 15.33398438 C-14.80841483 16.56129913 -16.4036487 17.78139493 -18 19 C-18.66 18.67 -19.32 18.34 -20 18 C-18.71034824 16.62437146 -17.37310707 15.29233607 -16 14 C-15.34 14 -14.68 14 -14 14 C-13.7525 13.360625 -13.505 12.72125 -13.25 12.0625 C-11.67012061 9.455699 -10.83219689 9.70804922 -8 9 C-7.30062468 7.68352881 -6.63270867 6.34977849 -6 5 C-5.01 4.67 -4.02 4.34 -3 4 C-3 3.34 -3 2.68 -3 2 C-2.01 1.34 -1.02 0.68 0 0 Z " fill="#608BB9" transform="translate(624,520)"/>
<path d="M0 0 C0 0.66 0 1.32 0 2 C-2.57525715 3.53617083 -5.158674 5.05388201 -7.75 6.5625 C-8.47960937 7.00013672 -9.20921875 7.43777344 -9.9609375 7.88867188 C-10.66992188 8.29794922 -11.37890625 8.70722656 -12.109375 9.12890625 C-13.08342285 9.70233765 -13.08342285 9.70233765 -14.07714844 10.28735352 C-16.4410801 11.16347293 -17.65942846 10.82193222 -20 10 C-17.04550087 8.3264663 -14.0857982 6.66236015 -11.125 5 C-10.28324219 4.52304687 -9.44148437 4.04609375 -8.57421875 3.5546875 C-7.76855469 3.10351562 -6.96289062 2.65234375 -6.1328125 2.1875 C-5.38918457 1.76855469 -4.64555664 1.34960938 -3.87939453 0.91796875 C-2 0 -2 0 0 0 Z " fill="#6187BA" transform="translate(627,297)"/>
<path d="M0 0 C4.05298676 3.1844896 7.42327213 6.47283798 10.703125 10.44921875 C12.06416642 12.12337369 12.06416642 12.12337369 14 14 C13.01 14.495 13.01 14.495 12 15 C7.19905123 11.06135756 3.04697176 7.45915773 0 2 C0 1.34 0 0.68 0 0 Z " fill="#6487B8" transform="translate(209,517)"/>
<path d="M0 0 C-0.99 0 -1.98 0 -3 0 C-3 0.66 -3 1.32 -3 2 C-8.07476794 3.26305335 -12.72796354 4.27036084 -18 4 C-18 3.34 -18 2.68 -18 2 C-15.75256955 1.46818825 -13.50192898 0.94992874 -11.25 0.4375 C-9.99703125 0.14746094 -8.7440625 -0.14257812 -7.453125 -0.44140625 C-4.40526252 -0.93444283 -2.82358172 -1.07666879 0 0 Z " fill="#6486B8" transform="translate(538,331)"/>
<path d="M0 0 C0.66 0.33 1.32 0.66 2 1 C-0.16145075 4.24217613 -1.40527707 4.98644268 -4.8125 6.6875 C-6.09060547 7.34298828 -6.09060547 7.34298828 -7.39453125 8.01171875 C-10.13081537 9.04961962 -12.10132192 9.19255133 -15 9 C-12.41676876 6.0117325 -9.44464763 4.50570453 -5.9375 2.75 C-4.87402344 2.20859375 -3.81054688 1.6671875 -2.71484375 1.109375 C-1.81894531 0.74328125 -0.92304687 0.3771875 0 0 Z " fill="#6383B5" transform="translate(617,444)"/>
<path d="M0 0 C5.28 0 10.56 0 16 0 C16 0.33 16 0.66 16 1 C14.02 1 12.04 1 10 1 C10 1.66 10 2.32 10 3 C6.7 3 3.4 3 0 3 C0 2.01 0 1.02 0 0 Z " fill="#6388B7" transform="translate(432,618)"/>
<path d="M0 0 C11.52164009 0.77904328 11.52164009 0.77904328 17 3 C16.67 3.66 16.34 4.32 16 5 C14.26969709 4.71515154 12.54079286 4.42180062 10.8125 4.125 C9.84957031 3.96257812 8.88664063 3.80015625 7.89453125 3.6328125 C5.08967396 3.01960483 2.62775253 2.14333657 0 1 C0 0.67 0 0.34 0 0 Z " fill="#6084B9" transform="translate(526,178)"/>
<path d="M0 0 C0 0.66 0 1.32 0 2 C-6.39014027 3.58444052 -11.50448709 4.20287276 -18 3 C-18 2.67 -18 2.34 -18 2 C-16.12612523 1.6603981 -14.25083303 1.32861309 -12.375 1 C-11.33085937 0.814375 -10.28671875 0.62875 -9.2109375 0.4375 C-6.09425135 0.01284203 -3.14069188 -0.07545206 0 0 Z " fill="#6386B8" transform="translate(505,336)"/>
<path d="M0 0 C-4.36988258 3.5895464 -7.66467599 4.13599111 -13.25 4.0625 C-14.14203125 4.05347656 -15.0340625 4.04445312 -15.953125 4.03515625 C-16.62859375 4.02355469 -17.3040625 4.01195312 -18 4 C-12.64766505 0.4317767 -6.36973531 -0.32665309 0 0 Z " fill="#5F83B7" transform="translate(328,174)"/>
<path d="M0 0 C0.99 0 1.98 0 3 0 C3 0.66 3 1.32 3 2 C4.0209375 2.12375 4.0209375 2.12375 5.0625 2.25 C8.8746907 3.22332528 11.64070329 4.95807455 15 7 C15 7.66 15 8.32 15 9 C11.34435091 8.31238981 8.48132728 6.74550455 5.25 4.9375 C4.26515625 4.38964844 3.2803125 3.84179688 2.265625 3.27734375 C1.51796875 2.85582031 0.7703125 2.43429687 0 2 C0 1.34 0 0.68 0 0 Z " fill="#5C91BE" transform="translate(229,403)"/>
<path d="M0 0 C5.50808397 0.59015185 10.64878069 1.56663769 16 3 C12.39768097 5.40154602 11.55528208 5.08561222 7.4375 4.3125 C5.98150391 4.05919922 5.98150391 4.05919922 4.49609375 3.80078125 C2 3 2 3 0 0 Z " fill="#5F86B8" transform="translate(290,471)"/>
<path d="M0 0 C0.33 0 0.66 0 1 0 C1 4.29 1 8.58 1 13 C0.01 13.495 0.01 13.495 -1 14 C-2.51516221 10.96967558 -2.17028053 8.34885038 -2 5 C-1 2.0625 -1 2.0625 0 0 Z " fill="#5D83B5" transform="translate(209,226)"/>
<path d="M0 0 C0.66 0.33 1.32 0.66 2 1 C-0.3385196 4.50777939 -2.26413448 5.20989777 -6 7 C-6.66 7.66 -7.32 8.32 -8 9 C-9.32 8.67 -10.64 8.34 -12 8 C-8.04 5.36 -4.08 2.72 0 0 Z " fill="#6186B7" transform="translate(238,201)"/>
<path d="M0 0 C4.83628305 0.99043705 9.47618873 1.95698846 14 4 C14 4.33 14 4.66 14 5 C8.72684667 4.5547115 3.98229776 3.91626837 -1 2 C-0.67 1.34 -0.34 0.68 0 0 Z " fill="#5E87B8" transform="translate(552,184)"/>
<path d="M0 0 C0 0.66 0 1.32 0 2 C-6.03503763 3.50875941 -11.89738369 2.64186094 -18 2 C-18 1.67 -18 1.34 -18 1 C-11.93303301 0.22959149 -6.11485027 -0.09706112 0 0 Z " fill="#5E82B8" transform="translate(478,482)"/>
<path d="M0 0 C5.27315333 0.4452885 10.01770224 1.08373163 15 3 C14.34 3.66 13.68 4.32 13 5 C8.45008485 4.5985369 4.22061424 2.64532419 0 1 C0 0.67 0 0.34 0 0 Z " fill="#6289B9" transform="translate(265,421)"/>
<path d="M0 0 C0.33 0.99 0.66 1.98 1 3 C0.34 3 -0.32 3 -1 3 C-0.67 2.01 -0.34 1.02 0 0 Z M-2 3 C-1.34 3.66 -0.68 4.32 0 5 C-1.65 7.64 -3.3 10.28 -5 13 C-6 9 -6 9 -4.0625 5.75 C-3.381875 4.8425 -2.70125 3.935 -2 3 Z " fill="#6585B8" transform="translate(627,379)"/>
<path d="M0 0 C-0.66 0 -1.32 0 -2 0 C-2 0.66 -2 1.32 -2 2 C-5.9813783 3.3271261 -9.85045227 3.06915913 -14 3 C-9.7368213 0.15788087 -5.03577274 -2.0143091 0 0 Z " fill="#6086B6" transform="translate(303,180)"/>
<path d="M0 0 C1.6266848 0.28211877 3.25132896 0.57602375 4.875 0.875 C5.77992188 1.03742188 6.68484375 1.19984375 7.6171875 1.3671875 C10 2 10 2 12 4 C8.18510326 5.46726798 5.70988378 4.43336419 2 3 C2 2.34 2 1.68 2 1 C1.34 0.67 0.68 0.34 0 0 Z " fill="#6484B5" transform="translate(268,465)"/>
<path d="M0 0 C0.99 0.33 1.98 0.66 3 1 C0.36 3.97 -2.28 6.94 -5 10 C-5.33 8.68 -5.66 7.36 -6 6 C-4.78515625 4.296875 -4.78515625 4.296875 -3.0625 2.75 C-2.21365234 1.96882812 -2.21365234 1.96882812 -1.34765625 1.171875 C-0.90292969 0.78515625 -0.45820313 0.3984375 0 0 Z " fill="#6386BB" transform="translate(218,215)"/>
<path d="M0 0 C0 0.66 0 1.32 0 2 C-5.445 4.475 -5.445 4.475 -11 7 C-11.33 6.34 -11.66 5.68 -12 5 C-10.56705502 4.15885829 -9.12845595 3.32734313 -7.6875 2.5 C-6.88699219 2.0359375 -6.08648437 1.571875 -5.26171875 1.09375 C-3 0 -3 0 0 0 Z " fill="#6486B9" transform="translate(253,195)"/>
<path d="M0 0 C4.38889325 0.66498383 7.9811485 2.18757677 12 4 C11.67 4.66 11.34 5.32 11 6 C6.49197399 4.74194623 3.5087188 3.09592835 0 0 Z " fill="#6487BA" transform="translate(235,684)"/>
<path d="M0 0 C3.43752007 1.5277867 6.18953688 3.50181056 9 6 C9 6.66 9 7.32 9 8 C7.68 7.67 6.36 7.34 5 7 C5 6.34 5 5.68 5 5 C2.525 4.01 2.525 4.01 0 3 C0 2.01 0 1.02 0 0 Z " fill="#6486B7" transform="translate(611,211)"/>
<path d="M0 0 C4.38889325 0.66498383 7.9811485 2.18757677 12 4 C11.34 4.66 10.68 5.32 10 6 C7.36 5.01 4.72 4.02 2 3 C2 2.34 2 1.68 2 1 C1.34 0.67 0.68 0.34 0 0 Z " fill="#6184B6" transform="translate(570,190)"/>
<path d="M0 0 C1.75070517 0.11470137 3.50057536 0.24219028 5.25 0.375 C6.22453125 0.44460938 7.1990625 0.51421875 8.203125 0.5859375 C10.89633189 0.98465249 12.66963279 1.63507063 15 3 C12.87561661 3.08078641 10.7503677 3.13909141 8.625 3.1875 C7.44164062 3.22230469 6.25828125 3.25710938 5.0390625 3.29296875 C3.53472656 3.14794922 3.53472656 3.14794922 2 3 C1.34 2.01 0.68 1.02 0 0 Z " fill="#5F86B8" transform="translate(314,476)"/>
<path d="M0 0 C4.87362847 0.45336079 7.39042389 1.7089159 11 5 C10.01 5.495 10.01 5.495 9 6 C6.8359375 5.00390625 6.8359375 5.00390625 4.375 3.5625 C3.55773437 3.08941406 2.74046875 2.61632812 1.8984375 2.12890625 C1.27195313 1.75636719 0.64546875 1.38382812 0 1 C0 0.67 0 0.34 0 0 Z " fill="#6388B9" transform="translate(234,264)"/>
<path d="M0 0 C3.25543229 0.34879632 4.01873107 1.02133261 6.25 3.5625 C6.8275 4.366875 7.405 5.17125 8 6 C4 6 4 6 1.75 4.125 C0 2 0 2 0 0 Z " fill="#5A93C2" transform="translate(212,665)"/>
<path d="M0 0 C-0.33 0.99 -0.66 1.98 -1 3 C-3.64 3 -6.28 3 -9 3 C-7.14340032 -0.71319936 -3.69365381 -0.09982848 0 0 Z " fill="#6486BA" transform="translate(465,298)"/>
<path d="M0 0 C1.1725131 0.95117134 2.33787015 1.91117009 3.5 2.875 C4.47453125 3.67550781 4.47453125 3.67550781 5.46875 4.4921875 C5.9740625 4.98976562 6.479375 5.48734375 7 6 C7 6.66 7 7.32 7 8 C4.24542282 7.62005832 3.17979426 7.1926367 1.25 5.125 C0 3 0 3 0 0 Z " fill="#5A95C3" transform="translate(214,246)"/>
<path d="M0 0 C3.63 0.33 7.26 0.66 11 1 C11 1.33 11 1.66 11 2 C6.545 2.495 6.545 2.495 2 3 C1.34 2.01 0.68 1.02 0 0 Z " fill="#5E86B7" transform="translate(331,336)"/>
<path d="M0 0 C2.64 0 5.28 0 8 0 C8 0.99 8 1.98 8 3 C2.25 2.25 2.25 2.25 0 0 Z " fill="#5F84B6" transform="translate(351,758)"/>
<path d="M0 0 C-0.33 0.99 -0.66 1.98 -1 3 C-2.98 3.33 -4.96 3.66 -7 4 C-7 3.34 -7 2.68 -7 2 C-4.35261084 0.5393715 -3.10551666 0 0 0 Z " fill="#6786B7" transform="translate(604,309)"/>
<path d="M0 0 C0.99 0.33 1.98 0.66 3 1 C1.02 2.98 -0.96 4.96 -3 7 C-3.66 6.67 -4.32 6.34 -5 6 C-4.67 5.01 -4.34 4.02 -4 3 C-1.9375 2.3125 -1.9375 2.3125 0 2 C0 1.34 0 0.68 0 0 Z " fill="#6385B7" transform="translate(616,251)"/>
<path d="M0 0 C5.75 1.625 5.75 1.625 8 5 C4.62537285 4.45276317 2.91765 3.9451 0 2 C0 1.34 0 0.68 0 0 Z " fill="#6186B8" transform="translate(595,201)"/>
<path d="M0 0 C-0.99 0 -1.98 0 -3 0 C-3 0.66 -3 1.32 -3 2 C-4.98 2.33 -6.96 2.66 -9 3 C-9 2.34 -9 1.68 -9 1 C-5.57367167 -0.61798838 -3.61944899 -1.34053666 0 0 Z " fill="#6284B6" transform="translate(284,185)"/>
<path d="M0 0 C1.32 0.33 2.64 0.66 4 1 C1.75 3.0625 1.75 3.0625 -1 5 C-3.3125 4.75 -3.3125 4.75 -5 4 C-3.35 3.34 -1.7 2.68 0 2 C0 1.34 0 0.68 0 0 Z " fill="#5B8FBD" transform="translate(224,210)"/>
</svg>
